<svg id="Layer_1" height="512" viewBox="0 0 512 512" width="512" xmlns="http://www.w3.org/2000/svg" data-name="Layer 1"><path d="m495.8 127.57v256.86h-479.6v-256.86z" fill="#58935e"/><path d="m433.71 159h-356.42c0 18-14.29 31.38-31.29 31.88v130.24c17 .5 31.29 14.88 31.29 32.88h356.42c0-18 13.29-32.38 30.29-32.88v-130.24c-17-.5-30.29-13.88-30.29-31.88z" fill="#7fd695"/><g fill="#61b257"><path d="m413 235.58a20.42 20.42 0 1 1 -20.42 20.42 20.415 20.415 0 0 1 20.42-20.42z"/><path d="m256 160.02a95.98 95.98 0 1 1 -95.98 95.98 95.978 95.978 0 0 1 95.98-95.98zm69.71 95.98a69.71 69.71 0 1 0 -69.71 69.71 69.71 69.71 0 0 0 69.71-69.71z"/><path d="m99 235.58a20.42 20.42 0 1 1 -20.41 20.42 20.417 20.417 0 0 1 20.41-20.42z"/></g><path d="m76 321.12v-130.24c17-.5 31.29-13.88 31.29-31.88h-30c0 18-14.29 31.38-31.29 31.88v130.24c17 .5 31.29 14.88 31.29 32.88h30c0-18-14.29-32.38-31.29-32.88z" fill="#6db57c"/><path d="m287.6 225.4a6 6 0 1 0 -8.946-8l-22.654 25.34-22.652-25.34a6 6 0 1 0 -8.946 8l25.598 28.633v7.967h-12a6 6 0 0 0 0 12h12v5h-12a6 6 0 0 0 0 12h12v6.6a6 6 0 0 0 12 0v-6.6h12a6 6 0 0 0 0-12h-12v-5h12a6 6 0 0 0 0-12h-12v-7.967z" fill="#eadf53"/></svg>